<?xml version="1.0" encoding="UTF-8" standalone="no"?>
<!-- Created with Inkscape (http://www.inkscape.org/) -->

<svg
   width="14.287506mm"
   height="11.64167mm"
   viewBox="0 0 14.287506 11.64167"
   version="1.1"
   id="svg5"
   xmlns="http://www.w3.org/2000/svg"
   xmlns:svg="http://www.w3.org/2000/svg">
  <defs
     id="defs2" />
  <g
     id="layer1"
     transform="translate(-62.786935,-114.10417)">
    <g
       id="g3679"
       transform="matrix(0,-0.15601477,0.1621797,0,51.665323,110.11733)">
      <path
         style="color:#000000;fill:#bcbaf8;fill-opacity:1;stroke-linecap:round;-inkscape-stroke:none"
         d="m -64.822234,72.313827 -5.12e-4,-1.817704 c -4.11e-4,-1.461253 -1.131244,-2.288156 -2.493561,-1.760159 -1.724642,0.668425 -3.39808,1.434832 -5.021297,2.29315 -1.291621,0.682978 -1.160015,1.606224 0.251465,1.984357 l 4.708938,1.261518 a 2.0297274,2.0297274 142.49059 0 0 2.554967,-1.961162 z"
         id="path35475" />
      <path
         style="color:#000000;fill:#ffd799;fill-opacity:1;stroke-linecap:round;-inkscape-stroke:none"
         d="m -58.265793,74.343335 4.751886,-1.27313 c 1.411473,-0.378163 1.545011,-1.304596 0.255637,-1.991807 -1.639435,-0.873787 -3.330544,-1.653903 -5.074092,-2.333645 -1.361264,-0.530704 -2.490764,0.294057 -2.490365,1.75531 l 5.14e-4,1.882164 a 2.0308489,2.0308489 37.492926 0 0 2.55642,1.961108 z"
         id="path35472" />
      <path
         style="color:#000000;fill:#ffcb80;fill-opacity:1;stroke-linecap:round;-inkscape-stroke:none"
         d="m -58.259803,88.89408 17.566356,-4.70665 c 1.411467,-0.378183 1.807874,-1.604536 0.826446,-2.686965 -1.448342,-1.597393 -2.985235,-3.099914 -4.614416,-4.494083 -1.110087,-0.949955 -3.200959,-1.357315 -4.612433,-0.979158 l -9.16985,2.456752 a 3.4466672,3.4466672 127.49012 0 0 -2.554706,3.330547 l 0.0019,5.118484 a 2.0310356,2.0310356 37.489605 0 0 2.556681,1.961073 z"
         id="path35469" />
      <path
         style="color:#000000;fill:#b7b2f5;fill-opacity:1;stroke-linecap:round;-inkscape-stroke:none"
         d="m -64.816499,86.948607 -0.002,-5.200524 a 3.4497791,3.4497791 52.49149 0 0 -2.55663,-3.33084 l -9.156248,-2.454236 c -1.41143,-0.378319 -3.504225,0.02632 -4.616718,0.973456 -1.658714,1.412168 -3.222431,2.936895 -4.694804,4.559102 -0.981989,1.081919 -0.5862,2.307765 0.825267,2.685951 l 17.646438,4.728158 a 2.0294394,2.0294394 142.48879 0 0 2.554677,-1.961067 z"
         id="path35466" />
      <path
         style="color:#000000;fill:#ffc266;fill-opacity:1;stroke-linecap:round;-inkscape-stroke:none"
         d="m -58.253959,103.48384 25.253888,-6.767078 c 1.411458,-0.378217 2.08375,-1.771998 1.441355,-3.084364 -0.754373,-1.541127 -1.568609,-3.041938 -2.455515,-4.491182 -0.76265,-1.246203 -2.588067,-1.910157 -3.999543,-1.532009 l -20.244062,5.423576 a 3.4466496,3.4466496 127.49034 0 0 -2.554714,3.33053 l 0.0019,5.159517 a 2.0309811,2.0309811 37.488947 0 0 2.556661,1.96101 z"
         id="path35463" />
      <path
         style="color:#000000;fill:#a9a4f4;fill-opacity:1;stroke-linecap:round;-inkscape-stroke:none"
         d="m -64.810642,101.54233 -0.002,-5.161467 a 3.4494729,3.4494729 52.488953 0 0 -2.556693,-3.330618 l -20.328088,-5.44683 c -1.411464,-0.378197 -3.237511,0.285268 -4.00116,1.530869 -0.888426,1.449125 -1.704275,2.949824 -2.460095,4.491022 -0.643362,1.311885 0.02829,2.705411 1.439741,3.083655 l 25.353626,6.794329 a 2.0293499,2.0293499 142.48993 0 0 2.554645,-1.96096 z"
         id="path35460" />
      <path
         style="color:#000000;fill:#ffb74c;fill-opacity:1;stroke-linecap:round;-inkscape-stroke:none"
         d="m -58.248109,118.06974 29.386708,-7.8745 c 1.411458,-0.37822 2.369098,-1.85567 2.052765,-3.28208 -0.349424,-1.57563 -0.77149,-3.1223 -1.249044,-4.64458 -0.437362,-1.39416 -1.986007,-2.20153 -3.397459,-1.82329 l -26.796882,7.18104 a 3.446889,3.446889 127.48846 0 0 -2.554671,3.3307 l 0.0019,5.1517 a 2.0309807,2.0309807 37.48898 0 0 2.556659,1.96101 z"
         id="path35457" />
      <path
         style="color:#000000;fill:#9c97f2;fill-opacity:1;stroke-linecap:round;-inkscape-stroke:none"
         d="m -64.804792,116.14193 -0.002,-5.16538 a 3.4496399,3.4496399 52.4903 0 0 -2.556661,-3.33073 l -26.904332,-7.21027 c -1.411446,-0.37826 -2.960733,0.42887 -3.398943,1.82277 -0.479611,1.5256 -0.903513,3.07573 -1.254396,4.65503 -0.316886,1.42628 0.640341,2.90367 2.051797,3.2819 l 29.509856,7.90767 a 2.0293797,2.0293797 142.48953 0 0 2.554655,-1.96099 z"
         id="path35454" />
      <path
         style="color:#000000;fill:#ffad33;fill-opacity:1;stroke-linecap:round;-inkscape-stroke:none"
         d="m -58.242229,132.66553 29.747998,-7.97037 c 1.411469,-0.37817 2.702548,-1.86042 2.843797,-3.31481 0.133179,-1.37131 0.126885,-3.67772 -0.01115,-5.13188 -0.0021,-0.0218 -0.0042,-0.0437 -0.0063,-0.0655 -0.139674,-1.45326 -1.414915,-2.323 -2.826375,-1.94479 l -29.75193,7.97219 a 3.446807,3.446807 127.48914 0 0 -2.554688,3.33064 l 0.0019,5.16342 a 2.0310424,2.0310424 37.489845 0 0 2.556678,1.96109 z"
         id="path35451" />
      <path
         style="color:#000000;fill:#8e89f1;fill-opacity:1;stroke-linecap:round;-inkscape-stroke:none"
         d="m -64.798933,130.72984 -0.002,-5.15366 a 3.4496634,3.4496634 52.490465 0 0 -2.556657,-3.33075 l -29.876992,-8.00712 c -1.411443,-0.37827 -2.687236,0.4924 -2.827494,1.94689 -0.002,0.0225 -0.004,0.0451 -0.006,0.0676 -0.13832,1.45285 -0.14302,3.82572 0.003,5.27902 0.137152,1.36379 1.415508,2.77349 2.826973,3.15169 l 29.884824,8.0074 a 2.029428,2.029428 142.48885 0 0 2.55467,-1.96105 z"
         id="path35448" />
      <path
         style="color:#000000;fill:#ffa31a;fill-opacity:1;stroke-linecap:round;-inkscape-stroke:none"
         d="m -58.236335,147.2555 24.35926,-6.52529 c 1.411488,-0.37811 3.245522,-1.65171 3.961453,-2.92491 1.174262,-2.08828 2.116098,-4.39302 2.822682,-6.93744 0.390916,-1.40769 -0.526933,-2.2657 -1.938403,-1.88753 l -29.208924,7.82583 a 3.4467085,3.4467085 127.48992 0 0 -2.554705,3.33057 l 0.0019,5.15756 a 2.0311452,2.0311452 37.491233 0 0 2.556713,1.96121 z"
         id="path35445" />
      <path
         style="color:#000000;fill:#827cee;fill-opacity:1;stroke-linecap:round;-inkscape-stroke:none"
         d="m -64.793073,145.32359 -0.002,-5.15951 a 3.4494911,3.4494911 52.489095 0 0 -2.55669,-3.33063 l -29.351536,-7.86478 c -1.411461,-0.37821 -2.329713,0.47988 -1.938897,1.88759 0.706187,2.54368 1.648258,4.84724 2.821882,6.93496 0.715785,1.27329 2.549304,2.54729 3.960767,2.92549 l 24.511782,6.56792 a 2.0294147,2.0294147 142.48904 0 0 2.554666,-1.96104 z"
         id="path35442" />
      <path
         style="color:#000000;fill:#ff9900;fill-opacity:1;stroke-linecap:round;-inkscape-stroke:none"
         d="m -58.248901,156.52109 c 7.901053,-2.40017 14.732456,-5.33924 20.013908,-9.35375 1.163044,-0.88405 0.900291,-1.37178 -0.511167,-0.99356 l -19.48827,5.22214 a 3.4468225,3.4468225 127.48884 0 0 -2.554675,3.33066 c 5.28e-4,1.40159 1.142062,2.21923 2.540204,1.79451 z"
         id="path2218" />
      <path
         style="color:#000000;fill:#736ced;fill-opacity:1;stroke-linecap:round;-inkscape-stroke:none"
         d="m -67.329374,156.56014 c -7.901053,-2.40017 -14.732456,-5.33924 -20.013908,-9.35375 -1.163044,-0.88405 -0.900291,-1.37178 0.511167,-0.99356 l 19.48827,5.22214 a 3.4468225,3.4468225 52.511162 0 1 2.554675,3.33066 c -5.28e-4,1.40159 -1.142062,2.21923 -2.540204,1.79451 z"
         id="path2218-9" />
    </g>
  </g>
</svg>
