<?xml version="1.0" encoding="UTF-8" standalone="no"?>
<!-- Created with Inkscape (http://www.inkscape.org/) -->

<svg
   width="14.287502mm"
   height="11.90625mm"
   viewBox="0 0 14.287502 11.90625"
   version="1.1"
   id="svg5"
   inkscape:export-filename="logo-large.svg"
   inkscape:export-xdpi="96"
   inkscape:export-ydpi="96"
   xmlns:inkscape="http://www.inkscape.org/namespaces/inkscape"
   xmlns:sodipodi="http://sodipodi.sourceforge.net/DTD/sodipodi-0.dtd"
   xmlns:xlink="http://www.w3.org/1999/xlink"
   xmlns="http://www.w3.org/2000/svg"
   xmlns:svg="http://www.w3.org/2000/svg">
  <sodipodi:namedview
     id="namedview7"
     pagecolor="#ffffff"
     bordercolor="#666666"
     borderopacity="1.0"
     inkscape:showpageshadow="2"
     inkscape:pageopacity="0.0"
     inkscape:pagecheckerboard="0"
     inkscape:deskcolor="#d1d1d1"
     inkscape:document-units="mm"
     showgrid="false"
     inkscape:zoom="3.659624"
     inkscape:cx="273.93524"
     inkscape:cy="360.55617"
     inkscape:window-width="1350"
     inkscape:window-height="1230"
     inkscape:window-x="236"
     inkscape:window-y="49"
     inkscape:window-maximized="0"
     inkscape:current-layer="layer1" />
  <defs
     id="defs2">
    <linearGradient
       inkscape:collect="always"
       id="linearGradient7257">
      <stop
         style="stop-color:#ff9900;stop-opacity:1;"
         offset="0"
         id="stop7253" />
      <stop
         style="stop-color:#ffffff;stop-opacity:0;"
         offset="0.5"
         id="stop7261" />
      <stop
         style="stop-color:#736ced;stop-opacity:1;"
         offset="1"
         id="stop7255" />
    </linearGradient>
    <linearGradient
       inkscape:collect="always"
       xlink:href="#linearGradient7257"
       id="linearGradient7259"
       x1="52.589825"
       y1="100.82791"
       x2="106.58984"
       y2="100.82791"
       gradientUnits="userSpaceOnUse" />
  </defs>
  <g
     inkscape:label="Layer 1"
     inkscape:groupmode="layer"
     id="layer1"
     transform="translate(-52.589826,-121.89813)">
    <g
       id="g6130"
       inkscape:export-filename="logo-large.svg"
       inkscape:export-xdpi="96"
       inkscape:export-ydpi="96"
       transform="matrix(2.4498452,0,0,2.4498452,-76.247105,-69.99312)">
      <g
         id="g8771"
         transform="matrix(0.108,0,0,0.108,46.910124,69.868491)">
        <rect
           id="rect111"
           width="52.907681"
           height="43.907677"
           x="53.13599"
           y="78.874069"
           ry="7.4210143"
           style="fill:none;stroke:url(#linearGradient7259);stroke-width:1.09233;stroke-dasharray:none;stroke-opacity:1" />
        <g
           aria-label="SB"
           transform="scale(1.0020711,0.9979332)"
           id="text275"
           style="font-size:39.1097px;line-height:1.25;font-family:Futura;-inkscape-font-specification:Futura;stroke-width:0.977745">
          <path
             d="m 59.431214,105.94457 q 1.756881,1.94784 3.36099,2.88357 1.680495,0.95483 3.284603,0.95483 1.508627,0 2.501646,-0.82115 0.99302,-0.82115 0.99302,-2.08152 0,-1.37495 -0.821151,-2.15791 -0.87844,-0.74477 -3.876596,-1.54682 -4.086658,-1.1076 -5.78625,-2.86448 -1.718688,-1.795075 -1.718688,-4.888713 0,-4.010272 2.692612,-6.531015 2.654418,-2.539838 6.951138,-2.539838 2.425259,0 4.392202,0.630185 2.062426,0.630186 3.914789,1.87146 l -2.387066,5.480705 q -1.260371,-1.088502 -2.673515,-1.680495 -1.37495,-0.553799 -2.692611,-0.553799 -1.336757,0 -2.234294,0.668379 -0.859344,0.630185 -0.859344,1.680494 0,1.012117 0.744764,1.680495 0.782958,0.630186 2.940867,1.203082 0.07639,0.0191 0.133675,0.03819 0.05729,0 0.171869,0.03819 4.659554,1.241275 6.149084,2.78809 0.973923,0.97392 1.527722,2.46345 0.49651,1.41315 0.49651,3.20822 0,4.4304 -2.921769,7.1612 -2.940866,2.69261 -7.791386,2.69261 -2.979059,0 -5.327932,-0.97392 -2.329777,-0.97393 -4.602265,-3.13183 z"
             style="fill:#ff9900"
             id="path8715" />
          <path
             d="m 87.980531,98.191374 h 1.527723 q 2.845383,0 3.876596,-0.611089 1.050309,-0.649282 1.050309,-2.157908 0,-1.585013 -0.973923,-2.234295 -1.069406,-0.668378 -3.838403,-0.668378 H 87.980531 Z M 80.914814,114.97723 V 87.019902 h 7.65771 q 4.621361,0 6.6074,0.305545 1.852364,0.286448 3.246411,1.050309 1.527722,0.897537 2.348875,2.272487 0.82115,1.451337 0.82115,3.36099 0,2.42526 -1.22218,3.819307 -1.203081,1.37495 -3.857499,2.100618 2.902673,0.229162 4.659559,2.062422 1.68049,1.87146 1.68049,5.0033 0,2.21519 -0.95483,3.91478 -0.95482,1.75689 -2.692608,2.65442 -1.336757,0.70657 -3.513762,1.1076 -2.253391,0.30555 -6.893848,0.30555 z m 7.065717,-5.70987 h 2.673515 q 2.711707,0 3.819306,-0.70657 1.145792,-0.64928 1.145792,-2.23429 0,-1.71869 -1.031213,-2.46346 -1.031212,-0.68747 -3.819306,-0.68747 h -2.788094 z"
             style="fill:#736ced"
             id="path8717" />
        </g>
      </g>
    </g>
  </g>
</svg>
