<?xml version="1.0" standalone="no"?>
<!DOCTYPE svg PUBLIC "-//W3C//DTD SVG 20010904//EN"
 "http://www.w3.org/TR/2001/REC-SVG-20010904/DTD/svg10.dtd">
<svg version="1.0" xmlns="http://www.w3.org/2000/svg"
 width="768.000000pt" height="768.000000pt" viewBox="0 0 768.000000 768.000000"
 preserveAspectRatio="xMidYMid meet">
<metadata>
Created by potrace 1.14, written by Peter Selinger 2001-2017
</metadata>
<g transform="translate(0.000000,768.000000) scale(0.100000,-0.100000)"
fill="#000000" stroke="none">
<path d="M4249 6436 c-2 -2 -31 -6 -64 -9 -33 -4 -71 -9 -85 -12 -14 -3 -38
-8 -55 -10 -16 -3 -38 -8 -47 -11 -9 -3 -25 -7 -35 -9 -75 -15 -340 -117 -353
-135 -3 -4 -16 -11 -29 -15 -14 -4 -29 -11 -35 -16 -6 -5 -49 -34 -96 -65
-163 -107 -283 -218 -404 -374 -86 -110 -79 -101 -94 -130 -22 -45 -54 -95
-65 -102 -5 -3 -28 0 -50 8 -22 8 -49 16 -61 19 -37 7 -70 15 -101 21 -60 14
-82 16 -225 20 -300 9 -549 -63 -803 -229 -45 -30 -95 -66 -112 -82 -119 -108
-157 -151 -263 -290 -85 -111 -174 -327 -212 -514 -11 -53 -24 -97 -29 -99
-17 -6 -184 -90 -206 -104 -75 -48 -186 -126 -215 -151 -126 -107 -241 -234
-308 -335 -20 -31 -40 -59 -43 -62 -11 -8 -119 -220 -113 -220 4 0 2 -6 -4
-12 -11 -14 -84 -218 -78 -218 2 0 -2 -21 -10 -46 -8 -26 -17 -67 -20 -93 -3
-25 -10 -68 -15 -96 -9 -53 -5 -359 5 -410 3 -16 9 -46 13 -65 3 -19 7 -39 9
-45 1 -5 5 -21 7 -35 5 -21 31 -114 41 -145 1 -5 8 -23 14 -38 7 -16 12 -31
12 -35 0 -16 101 -213 142 -277 84 -131 212 -277 338 -385 91 -79 288 -197
440 -264 50 -22 178 -63 225 -71 22 -4 45 -10 50 -14 11 -6 17 -7 85 -16 25
-3 72 -10 104 -14 33 -4 404 -8 824 -7 671 1 765 3 768 16 2 8 10 42 19 75 19
73 51 232 60 300 4 28 9 59 11 70 18 98 24 380 10 510 -19 190 -91 371 -191
480 -98 107 -187 247 -232 365 -42 110 -35 86 -58 200 -18 87 -24 254 -13 345
15 113 21 144 50 235 27 84 100 246 117 260 3 3 12 17 20 32 8 15 21 36 30 45
9 10 28 34 42 53 66 88 216 226 319 292 54 34 155 89 175 94 6 2 40 14 77 28
68 26 85 30 168 47 114 22 288 28 430 16 73 -6 97 -10 150 -23 14 -3 41 -9 60
-14 56 -12 160 -50 225 -82 67 -34 204 -123 250 -163 98 -86 174 -167 236
-250 24 -33 46 -62 49 -65 3 -3 10 -14 17 -25 111 -183 156 -285 178 -400 8
-38 16 -81 18 -95 33 -168 99 -340 195 -505 25 -44 49 -82 53 -85 3 -3 11 -15
18 -27 10 -19 8 -24 -11 -35 -13 -7 -30 -17 -39 -23 -9 -5 -49 -29 -88 -53
-39 -24 -72 -46 -72 -50 -1 -4 -2 -167 -3 -362 -2 -381 -5 -406 -54 -453 -62
-59 -108 -65 -322 -37 -78 10 -122 15 -228 25 -35 4 -73 8 -85 11 -12 2 -49 6
-82 9 -61 6 -103 10 -177 21 -24 3 -61 8 -83 10 -22 2 -58 6 -80 8 -22 3 -62
8 -90 11 -27 3 -68 8 -90 11 -22 3 -57 7 -78 8 l-37 2 6 -40 c12 -82 65 -157
141 -199 46 -24 78 -32 173 -42 34 -3 153 -20 215 -31 32 -5 79 -11 107 -13
15 -1 15 -6 -6 -48 -13 -27 -30 -68 -36 -93 -7 -25 -15 -52 -18 -60 -3 -8 -6
-28 -8 -45 -1 -16 -5 -52 -8 -80 -4 -27 -9 -81 -12 -118 l-7 -68 754 4 c415 2
765 7 779 10 14 3 43 8 65 12 22 3 51 8 65 11 14 3 33 7 42 9 26 6 141 36 158
43 8 3 17 6 20 6 53 11 352 150 358 167 2 5 9 9 15 9 10 0 99 55 132 82 6 4
39 31 75 59 123 96 251 229 346 360 100 137 189 303 249 464 20 55 38 106 40
115 2 8 12 51 23 95 11 44 23 98 26 120 3 22 9 65 13 95 10 67 10 376 0 445
-14 105 -19 133 -38 215 -104 437 -346 807 -706 1076 -53 40 -113 81 -133 91
-19 10 -37 21 -40 24 -6 7 -127 68 -194 99 -58 26 -248 90 -285 96 -14 3 -39
9 -56 14 -16 5 -51 12 -77 16 -26 3 -51 11 -56 18 -4 6 -14 40 -21 76 -17 83
-15 77 -30 130 -60 210 -173 434 -298 592 -121 151 -296 305 -463 407 -128 79
-331 163 -465 192 -33 7 -62 13 -65 14 -3 1 -27 5 -55 10 -27 4 -59 10 -70 12
-24 6 -361 14 -366 9z m109 -261 c80 -11 93 -15 181 -44 82 -28 173 -67 216
-94 51 -32 140 -91 158 -106 61 -50 144 -133 180 -181 23 -30 45 -56 50 -58 4
-2 7 -8 7 -13 0 -6 8 -19 18 -29 31 -33 119 -220 145 -310 35 -117 53 -246 51
-365 -2 -137 -2 -135 -21 -142 -38 -13 -191 -125 -252 -183 l-64 -60 -68 47
c-250 173 -418 247 -654 289 -16 3 -36 7 -43 9 -29 10 -176 19 -297 19 -147 0
-210 -6 -346 -34 -60 -12 -241 -70 -255 -81 -6 -5 -14 -6 -17 -2 -4 3 -7 1 -7
-5 0 -7 -9 -12 -20 -12 -11 0 -20 -5 -20 -10 0 -6 -3 -9 -7 -8 -14 2 -45 -14
-148 -75 -121 -73 -154 -99 -260 -202 -119 -117 -197 -220 -259 -342 -14 -28
-29 -54 -34 -57 -4 -2 -22 8 -39 22 -58 50 -70 59 -129 99 -32 22 -88 55 -124
72 -36 18 -76 38 -90 46 -30 15 -204 72 -240 79 -14 2 -46 9 -72 15 -25 6 -70
13 -100 17 -29 3 -64 7 -78 9 -14 2 -33 3 -42 4 -15 1 -14 7 8 59 75 172 133
258 256 383 154 157 402 282 628 316 59 9 263 9 312 1 132 -22 121 -26 158 55
28 60 84 167 125 236 10 17 52 76 70 99 13 17 123 138 151 167 12 12 44 39 70
61 27 21 51 41 54 44 28 29 291 180 312 180 3 0 22 7 42 15 20 8 37 15 38 14
2 0 17 5 33 11 82 32 247 66 317 65 27 0 49 5 49 10 1 6 3 3 6 -6 3 -11 20
-19 51 -24z m-8 23 c0 -4 -7 -8 -15 -8 -8 0 -15 4 -15 8 0 5 7 9 15 9 8 0 15
-4 15 -9z m203 -3 c37 -3 98 -12 135 -20 37 -9 77 -18 88 -20 50 -11 214 -75
274 -107 99 -52 209 -122 245 -156 11 -10 29 -24 40 -30 12 -7 14 -12 7 -12
-8 0 -34 18 -59 40 -61 54 -309 194 -360 205 -10 1 -36 10 -58 19 -50 19 -161
48 -235 61 -45 7 -154 16 -212 17 -32 1 -58 5 -58 8 0 7 80 5 193 -5z m847
-392 c0 -7 -39 17 -46 28 -3 6 5 3 20 -6 14 -10 26 -19 26 -22z m41 -40 c13
-16 31 -37 39 -48 8 -12 5 -10 -8 5 -13 14 -35 35 -48 48 -14 12 -21 22 -16
22 4 0 19 -12 33 -27z m90 -100 c13 -16 12 -17 -3 -4 -10 7 -18 15 -18 17 0 8
8 3 21 -13z m30 -40 c13 -16 12 -17 -3 -4 -10 7 -18 15 -18 17 0 8 8 3 21 -13z
m518 -888 c47 -8 96 -17 109 -19 37 -8 186 -55 225 -71 20 -8 40 -16 44 -16
17 -3 198 -102 201 -110 2 -5 8 -9 14 -9 11 0 26 -16 81 -84 18 -21 38 -44 45
-51 6 -8 12 -18 12 -23 0 -6 4 -12 8 -14 28 -11 164 -267 205 -388 31 -91 63
-217 72 -285 3 -28 8 -64 10 -80 6 -45 6 -263 0 -320 -3 -27 -10 -75 -17 -105
-6 -30 -12 -62 -13 -70 -13 -99 -140 -415 -190 -470 -8 -9 -15 -20 -15 -25 0
-9 -96 -139 -139 -189 -72 -83 -271 -258 -314 -276 -7 -3 -32 -18 -57 -34 -87
-57 -309 -152 -396 -170 -10 -3 -48 -11 -84 -19 -89 -21 -128 -26 -247 -33
l-102 -7 29 54 c16 30 32 69 35 88 3 19 8 38 11 42 3 5 5 146 5 315 -1 304 0
306 22 325 12 10 25 18 29 19 11 0 109 64 133 86 77 71 83 201 13 278 -27 30
-113 175 -152 257 -46 97 -88 225 -102 313 -3 21 -8 48 -10 60 -2 11 -7 36
-10 55 -10 59 -63 199 -110 289 -41 78 -148 250 -163 262 -3 3 -19 24 -35 48
l-29 43 39 40 c163 170 446 293 704 307 29 1 91 -4 139 -13z m-4384 -499 c76
-6 98 -9 155 -21 14 -3 36 -8 50 -11 14 -3 35 -7 48 -10 38 -8 133 -44 202
-76 103 -49 199 -116 278 -196 62 -63 71 -76 62 -93 -6 -10 -8 -19 -6 -19 3 0
2 -10 -3 -23 -8 -22 -14 -49 -28 -132 -2 -16 -6 -96 -8 -176 -3 -146 13 -276
46 -384 7 -22 13 -42 14 -45 13 -62 109 -253 178 -357 27 -39 78 -106 114
-150 36 -43 73 -94 84 -114 25 -50 57 -178 67 -269 13 -122 2 -350 -23 -499
-4 -20 -8 -45 -10 -56 -2 -11 -6 -40 -10 -65 -4 -25 -11 -47 -15 -50 -5 -3
-255 -5 -557 -4 -398 0 -556 4 -578 13 -16 6 -43 17 -60 23 -96 38 -290 155
-380 229 -44 36 -185 177 -225 225 -78 93 -210 320 -235 404 -4 14 -11 30 -14
35 -4 6 -13 30 -20 55 -7 25 -17 56 -22 70 -53 164 -70 503 -33 675 2 11 6 31
8 45 7 36 12 57 30 126 43 167 157 388 275 537 70 88 236 254 263 263 10 3 18
9 18 13 0 13 55 38 89 40 19 1 36 3 37 4 4 3 121 -1 209 -7z"/>
</g>
</svg>
