<?xml version="1.0" standalone="no"?>
<!DOCTYPE svg PUBLIC "-//W3C//DTD SVG 20010904//EN"
 "http://www.w3.org/TR/2001/REC-SVG-20010904/DTD/svg10.dtd">
<svg version="1.0" xmlns="http://www.w3.org/2000/svg"
 width="768.000000pt" height="768.000000pt" viewBox="0 0 768.000000 768.000000"
 preserveAspectRatio="xMidYMid meet">
<metadata>
Created by potrace 1.14, written by Peter Selinger 2001-2017
</metadata>
<g transform="translate(0.000000,768.000000) scale(0.100000,-0.100000)"
fill="#000000" stroke="none">
<path d="M4239 6436 c-2 -2 -29 -7 -59 -10 -30 -4 -66 -9 -80 -11 -48 -7 -166
-34 -195 -45 -17 -6 -32 -12 -35 -12 -22 -2 -162 -58 -236 -94 -75 -37 -256
-153 -319 -205 -39 -32 -202 -194 -243 -241 -37 -43 -141 -197 -166 -246 -13
-25 -22 -32 -34 -27 -24 10 -73 25 -97 30 -19 5 -37 9 -87 20 -105 24 -319 35
-403 21 -22 -3 -60 -8 -85 -11 -131 -13 -275 -65 -501 -180 -10 -5 -19 -13
-19 -17 0 -5 -5 -8 -11 -8 -35 0 -260 -202 -338 -305 -17 -22 -35 -45 -41 -52
-27 -33 -105 -171 -140 -250 -49 -112 -102 -301 -103 -372 0 -11 -65 -46 -95
-52 -12 -2 -96 -51 -114 -67 -10 -8 -18 -12 -18 -8 0 4 -6 2 -12 -4 -7 -6 -47
-34 -89 -63 -246 -167 -433 -390 -560 -665 -41 -87 -94 -237 -103 -287 -3 -16
-8 -41 -11 -55 -4 -14 -8 -38 -11 -55 -3 -16 -8 -41 -11 -55 -9 -42 -12 -372
-3 -420 4 -25 11 -66 14 -91 8 -61 41 -185 68 -256 12 -32 23 -62 24 -68 1 -5
22 -52 47 -103 155 -313 408 -572 719 -736 102 -54 236 -107 262 -105 5 0 12
-3 15 -8 5 -8 126 -41 176 -48 21 -3 74 -13 115 -22 14 -3 386 -7 827 -9 l802
-3 7 22 c4 12 9 27 10 32 1 6 9 39 18 75 9 36 19 80 22 99 9 53 13 71 17 79 3
4 8 34 11 67 4 33 9 67 11 75 16 60 25 420 12 530 -14 126 -56 268 -105 355
-26 47 -122 169 -153 195 -16 14 -91 135 -127 205 -37 74 -76 178 -87 234 -2
12 -6 30 -9 39 -24 77 -24 346 0 452 3 14 8 38 10 54 8 40 62 192 86 241 176
351 508 616 861 689 170 35 373 39 552 11 46 -8 163 -38 219 -57 56 -19 214
-94 226 -108 3 -3 24 -18 48 -33 46 -30 67 -46 114 -90 17 -15 36 -31 42 -35
10 -7 72 -73 141 -152 17 -19 51 -64 75 -100 25 -36 50 -68 55 -72 6 -4 6 -8
1 -8 -5 0 -2 -8 7 -18 40 -43 129 -254 142 -332 3 -19 8 -48 11 -65 8 -49 45
-198 53 -220 5 -11 19 -47 31 -80 33 -86 129 -273 162 -313 44 -56 44 -56 -50
-113 -48 -29 -89 -55 -92 -58 -3 -3 -14 -11 -25 -17 -19 -11 -20 -22 -20 -377
-1 -392 0 -388 -54 -449 -48 -55 -112 -65 -276 -43 -16 3 -55 7 -85 10 -30 3
-71 8 -90 10 -19 3 -57 7 -85 10 -91 10 -150 16 -175 20 -14 3 -52 7 -85 10
-33 2 -71 7 -85 10 -14 2 -50 7 -80 10 -30 3 -71 7 -90 10 -19 2 -62 7 -95 10
-33 3 -73 8 -90 10 -16 3 -49 7 -73 9 l-43 5 6 -39 c3 -22 12 -55 20 -73 17
-41 83 -117 101 -117 8 0 14 -4 14 -8 0 -10 58 -31 97 -36 15 -2 46 -7 68 -10
22 -3 58 -8 80 -10 22 -3 56 -8 75 -11 19 -2 51 -7 70 -9 19 -2 56 -7 81 -11
l45 -7 -21 -43 c-26 -50 -33 -71 -50 -145 -2 -8 -4 -15 -5 -15 -3 0 -17 -128
-27 -238 l-5 -68 753 4 c415 2 766 7 781 10 16 3 47 8 70 12 24 4 52 9 63 12
52 11 71 15 80 17 22 6 131 38 145 43 8 3 20 7 25 8 57 14 302 132 338 163 9
8 17 12 17 8 0 -4 6 -2 13 4 6 6 48 36 92 67 44 31 82 60 83 64 2 5 8 9 13 9
21 0 206 185 295 296 173 216 334 565 370 804 3 19 7 42 9 50 23 89 27 459 6
585 -26 155 -29 168 -63 280 -31 105 -87 242 -135 335 -31 58 -110 187 -128
206 -5 6 -17 22 -25 34 -71 107 -213 251 -384 387 -99 80 -390 234 -486 258
-3 1 -14 5 -25 9 -46 18 -186 57 -220 61 -20 3 -90 17 -105 21 -9 2 -16 13
-17 25 -1 11 -7 46 -14 77 -15 69 -16 71 -19 75 -1 1 -4 15 -6 31 -3 16 -9 37
-15 47 -5 10 -9 27 -9 38 0 12 -5 21 -10 21 -6 0 -9 3 -8 8 3 10 -34 106 -69
178 -25 50 -72 133 -126 219 -46 74 -212 258 -302 335 -53 45 -202 150 -213
150 -5 0 -12 4 -14 8 -1 5 -52 33 -113 63 -145 72 -321 131 -463 154 -23 4
-54 9 -70 11 -37 7 -377 16 -383 10z"/>
</g>
</svg>
