<?xml version="1.0" encoding="UTF-8" standalone="no"?>
<!-- Created with Inkscape (http://www.inkscape.org/) -->

<svg
   width="17.175941mm"
   height="11.64167mm"
   viewBox="0 0 17.175941 11.64167"
   version="1.1"
   id="svg5085"
   xmlns="http://www.w3.org/2000/svg"
   xmlns:svg="http://www.w3.org/2000/svg">
  <defs
     id="defs5082" />
  <g
     id="layer1"
     transform="translate(-47.578118,-106.72978)">
    <g
       id="g4644"
       transform="matrix(0.05424821,0,0,0.05424821,29.108491,85.558559)">
      <g
         id="g26"
         transform="translate(-1.2171373,-2.4342746)"
         style="fill:#a1eedd;fill-opacity:1">
		<g
   id="g24"
   style="fill:#a1eedd;fill-opacity:1">
			<path
   class="st0"
   d="m 464.6,442.7 c -3.4,-0.8 -6.9,-1.2 -10.5,-1.2 -20.6,0 -38,13.3 -44.2,31.9 -3.4,-0.2 -6.9,-0.2 -10.2,0 -1.5,0.1 -3,0.3 -4.5,0.5 0,0 -0.1,0 -0.2,0 0.1,-0.6 0.3,-1.3 0.5,-1.9 0,0 0,0 0,0 0.3,-1.2 0.7,-2.5 1.1,-3.7 0.2,-0.7 0.5,-1.4 0.8,-2.1 0.4,-1 0.8,-1.9 1.3,-2.9 0,-0.1 0.1,-0.2 0.1,-0.3 0.2,-0.4 0.4,-0.8 0.6,-1.2 0.3,-0.7 0.7,-1.3 1.1,-2 0.2,-0.4 0.5,-0.7 0.7,-1.1 0.3,-0.5 0.7,-1.1 1,-1.6 0.4,-0.5 0.7,-1 1.1,-1.5 0.3,-0.4 0.5,-0.7 0.8,-1.1 0.6,-0.7 1.1,-1.4 1.7,-2.1 0.1,-0.1 0.2,-0.2 0.3,-0.3 2.9,-3.3 6.3,-6.1 10,-8.5 6.6,-4.1 14.2,-6.6 22.3,-7.1 v 0 c 0.9,-0.1 1.7,-0.1 2.6,-0.1 5.9,0 11.6,1.1 17,3.2 0.9,0.4 1.9,0.8 2.8,1.2 l 3.5,1.6 z"
   id="path16"
   style="fill:#a1eedd;fill-opacity:1" />

			<path
   class="st0"
   d="m 581.9,452.8 v 0 c -0.7,0.1 -1.5,0.2 -2.2,0.3 v 0 c -6,1 -12,3.1 -17.3,6 0.3,-2.1 0.4,-4.3 0.4,-6.5 0,-26 -19.9,-47.3 -45.3,-49.5 1.7,-0.1 3.3,-0.2 5,-0.2 10.3,0 20,2.5 28.5,7.1 v 0 c 16,8.4 27.7,24 30.9,42.8 z"
   id="path18"
   style="fill:#a1eedd;fill-opacity:1" />

			<path
   class="st0"
   d="m 648.3,529.6 c 0,37.1 -30,67.3 -67.1,67.6 h -42.5 c 0.6,-2.5 1,-4.6 2.8,-6.5 1.5,-1.6 3.4,-2.2 5.5,-2.2 2.3,0 4.6,0 6.9,0 6.3,-0.1 11.3,-2.5 15.1,-7.2 0.5,0 1,0 1.5,0 35.6,0 64.4,-28.8 64.4,-64.4 0,-17.2 -6.8,-32.8 -17.7,-44.4 18.8,12 31.1,33.1 31.1,57.1 z"
   id="path20"
   style="fill:#a1eedd;fill-opacity:1" />

			<path
   class="st0"
   d="m 415.3,597.2 h -6.1 c -31.7,0 -57.5,-25.8 -57.5,-57.5 0,-2.7 0.2,-5.4 0.6,-8 v 0 c 1.3,-9.3 4.8,-18 10.1,-25.4 0.1,-0.1 0.1,-0.2 0.2,-0.2 0.6,-0.9 1.3,-1.8 2,-2.6 0.2,-0.2 0.4,-0.4 0.5,-0.7 0.6,-0.7 1.2,-1.4 1.9,-2.1 0.2,-0.2 0.4,-0.5 0.7,-0.7 0.7,-0.8 1.5,-1.5 2.3,-2.2 0.1,-0.1 0.2,-0.2 0.4,-0.3 0.9,-0.8 1.8,-1.6 2.7,-2.3 0.3,-0.2 0.5,-0.4 0.8,-0.6 0.7,-0.6 1.5,-1.1 2.2,-1.7 0.3,-0.2 0.5,-0.3 0.7,-0.5 1,-0.7 1.9,-1.3 2.9,-1.9 0.2,-0.1 0.4,-0.2 0.6,-0.4 0.9,-0.5 1.9,-1.1 2.9,-1.6 0.1,0 0.2,-0.1 0.3,-0.1 0.7,-0.3 1.4,-0.6 2,-0.9 4.4,-1.9 9,-3.2 13.8,-3.8 -16.5,11.7 -27.3,30.9 -27.3,52.7 -0.2,28.1 18,52.1 43.3,60.8 z"
   id="path22"
   style="fill:#a1eedd;fill-opacity:1" />

		</g>

	</g>
      <path
         class="st1"
         d="m 599.18286,451.96573 c -2.7,-0.7 -5.5,-1.3 -8.3,-1.7 -1.5,-10 -5,-19.3 -10.1,-27.4 -12.5,-19.8 -34.4,-32.6 -59.5,-32.6 -26,0 -49.9,14.4 -62,37.2 -6.2,-2.3 -12.8,-3.4 -19.5,-3.4 -0.6,0 -1.2,0.1 -1.9,0 -10.3,0.3 -20.4,3.5 -29.1,9.1 -11.4,7.4 -20.1,19 -23.8,32.1 -0.8,2.9 -1.5,5.9 -1.8,8.9 -2.5,1 -5,2.2 -7.4,3.5 -0.5,0.3 -1,0.6 -1.4,0.9 -0.3,0.2 -0.6,0.4 -1,0.6 -12.4,7.4 -22.3,18.8 -27.8,32.2 -3.9,9.3 -5.6,19.5 -5,29.6 2,36 32.6,63.8 68.6,63.8 h 58.5 c 0.7,-2.6 1.8,-7.2 2.3,-9.8 0,-0.1 0,-0.2 0.1,-0.3 0.5,-2.6 1,-5.1 1.3,-7.7 0.8,-5.5 1.2,-11.1 1,-16.6 0,-0.7 0,-1.4 -0.1,-2.2 -0.3,-6.2 -1.4,-12.3 -4.3,-17.9 -0.9,-1.7 -1.9,-3.2 -3.2,-4.6 -1.5,-1.7 -3,-3.4 -4.3,-5.1 -2,-2.7 -3.6,-5.5 -5,-8.4 -0.1,-0.2 -0.2,-0.4 -0.3,-0.6 -2.7,-6.1 -4.1,-12.7 -3.9,-19.9 0.2,-10.3 3.3,-19.5 9,-27.6 0.9,-1.3 2,-2.6 3,-3.9 0.6,-0.8 1.3,-1.5 2,-2.2 0.2,-0.2 0.4,-0.4 0.6,-0.6 0.8,-0.9 1.7,-1.7 2.5,-2.5 1,-0.9 2,-1.8 3.1,-2.6 0.5,-0.4 0.9,-0.7 1.4,-1.1 3,-2.2 6.1,-4 9.4,-5.5 1.1,-0.5 2.2,-0.9 3.3,-1.3 2.4,-0.9 4.9,-1.5 7.5,-2 2.1,-0.4 4.2,-0.6 6.4,-0.8 10.1,-0.6 19.2,0.8 27.3,4.3 10.2,4.5 18.5,12.6 24.6,21.8 2.9,4.3 5.4,9 6.8,14 0.3,1.3 0.6,2.6 0.8,3.9 1.8,12.5 7.8,22.8 11.9,28.6 l -9.4,5.8 v 28.5 c 0,2.1 -0.9,4.1 -2.4,5.5 -1.5,1.4 -3.6,2.1 -5.7,2 -0.3,0 -0.6,-0.1 -0.9,-0.1 -8.1,-0.8 -48.9,-5.6 -48.9,-5.6 0,5.7 4.3,10.6 10,11.3 0,0 14.5,1.9 17.2,2.3 -0.8,1.2 -1.5,2.6 -2,4 -0.4,1 -0.7,2.1 -1,3.3 -0.8,3.3 -1.4,10.8 -1.7,13.7 h 53.9 c 42.6,-0.3 77.1,-35 77.1,-77.6 0,-36.2 -24.1,-66.6 -57.9,-75.3 z m -147.7,93.9 c 1.6,2.3 3.4,4.6 5.4,6.8 1.8,2 2.8,4.4 3.5,6.9 1.5,5.1 1.8,10.3 1.6,15.6 v 0 c 0,0.1 0,0.2 0,0.3 -0.3,6 -1,11.9 -2.2,17.8 -0.1,0.5 -0.2,1 -0.3,1.5 h -51.5 c -31.7,0 -57.5,-25.8 -57.5,-57.5 0,-2.7 0.2,-5.4 0.6,-8 v 0 c 1.3,-9.3 4.8,-18 10.1,-25.4 0.1,-0.1 0.1,-0.2 0.2,-0.2 0.6,-0.9 1.3,-1.8 2,-2.6 0.2,-0.2 0.4,-0.4 0.5,-0.7 0.6,-0.7 1.2,-1.4 1.9,-2.1 0.2,-0.2 0.4,-0.5 0.7,-0.7 0.7,-0.8 1.5,-1.5 2.3,-2.2 0.1,-0.1 0.2,-0.2 0.4,-0.3 0.9,-0.8 1.8,-1.6 2.7,-2.3 0.3,-0.2 0.5,-0.4 0.8,-0.6 0.7,-0.6 1.5,-1.1 2.2,-1.7 0.3,-0.2 0.5,-0.3 0.7,-0.5 1,-0.7 1.9,-1.3 2.9,-1.9 0.2,-0.1 0.4,-0.2 0.6,-0.4 0.9,-0.5 1.9,-1.1 2.9,-1.6 0.1,0 0.2,-0.1 0.3,-0.1 0.7,-0.3 1.4,-0.6 2,-0.9 1,-0.4 2.1,-0.9 3.1,-1.3 0.5,-0.2 1,-0.3 1.5,-0.5 0.5,-0.2 1,-0.3 1.6,-0.5 0.3,-0.1 0.6,-0.2 0.9,-0.3 0.4,-0.1 0.9,-0.2 1.4,-0.3 0.5,-0.1 1,-0.2 1.5,-0.3 0.5,-0.1 1,-0.2 1.5,-0.3 0.3,-0.1 0.6,-0.1 0.8,-0.1 0.5,-0.1 1,-0.1 1.5,-0.2 1.3,-0.2 2.6,-0.3 3.9,-0.3 1.5,0 3.1,0 4.6,0 7.9,0.3 15.9,1.9 22.9,5.4 4.4,2.1 8.4,5 11.7,8.6 0.7,0.7 1.3,1.4 1.9,2.2 -3.4,12.1 -3,23.6 0.8,34.3 0.3,0.8 0.6,1.6 0.9,2.3 1.7,4.1 4,8.2 6.7,12.1 z m 84.7,-86.7 c -6.1,-3.4 -12.9,-5.6 -20.4,-6.8 -9.8,-1.5 -19.6,-1.3 -29.1,1.3 -1.1,0.3 -2.2,0.6 -3.3,1 -0.9,0.3 -1.7,0.6 -2.6,0.9 -2.3,0.9 -4.5,1.9 -6.6,2.9 -0.3,0.2 -0.6,0.3 -0.9,0.5 -3,1.6 -5.8,3.3 -8.4,5.3 -0.2,0.1 -0.4,0.3 -0.6,0.4 -3,2.3 -5.7,4.8 -8.2,7.7 -0.1,0.1 -0.2,0.2 -0.3,0.3 -3.5,4 -6.4,8.5 -8.8,13.6 -8.1,-7.9 -18.8,-12.5 -29.9,-14.5 -2.8,-0.5 -5.6,-0.8 -8.4,-1 -3.4,-0.2 -6.9,-0.2 -10.2,0 -1.5,0.1 -3,0.3 -4.5,0.5 0,0 -0.1,0 -0.2,0 0.1,-0.6 0.3,-1.3 0.5,-1.9 0,0 0,0 0,0 0.3,-1.2 0.7,-2.5 1.1,-3.7 0.2,-0.7 0.5,-1.4 0.8,-2.1 0.4,-1 0.8,-1.9 1.3,-2.9 0,-0.1 0.1,-0.2 0.1,-0.3 0.2,-0.4 0.4,-0.8 0.6,-1.2 0.3,-0.7 0.7,-1.3 1.1,-2 0.2,-0.4 0.5,-0.7 0.7,-1.1 0.3,-0.5 0.7,-1.1 1,-1.6 0.4,-0.5 0.7,-1 1.1,-1.5 0.3,-0.4 0.5,-0.7 0.8,-1.1 0.6,-0.7 1.1,-1.4 1.7,-2.1 0.1,-0.1 0.2,-0.2 0.3,-0.3 2.9,-3.3 6.3,-6.1 10,-8.5 6.6,-4.1 14.2,-6.6 22.3,-7.1 v 0 c 0.9,-0.1 1.7,-0.1 2.6,-0.1 5.9,0 11.6,1.1 17,3.2 0.9,0.4 1.9,0.8 2.8,1.2 l 3.5,1.6 0.3,0.1 c 0,0 0,0 0,0 l 0.7,0.3 c 0,0 0,0 0.1,0 l 0.1,-0.1 2,-4.5 c 9,-20.1 28.3,-33.6 50,-35.4 1.7,-0.1 3.3,-0.2 5,-0.2 10.3,0 20,2.5 28.5,7.1 v 0 c 16,8.5 27.7,24.1 30.9,42.9 v 0 c -0.7,0.1 -1.5,0.2 -2.2,0.3 v 0 c -6,1 -12,3.1 -17.3,6 -5.3,2.9 -10.1,6.5 -13.6,10.5 -3.6,-2.7 -7.3,-5.4 -11.4,-7.6 z m 43.8,135.6 h -42.5 c 0.6,-2.5 1,-4.6 2.8,-6.5 1.5,-1.6 3.4,-2.2 5.5,-2.2 2.3,0 4.5,0 6.8,0 v -0.1 c 0.1,0 0.1,0 0.2,0 0.4,0 0.9,0.1 1.3,0.1 4.4,0 8.7,-1.7 12,-4.7 3.6,-3.3 5.6,-8 5.6,-12.9 v -22.9 l 6.4,-3.9 c 1.9,-1.2 3.3,-3.2 3.7,-5.4 0.4,-2.2 -0.1,-4.6 -1.5,-6.4 -3.5,-4.6 -9.5,-14.1 -11.2,-25.6 -0.1,-0.8 -0.3,-1.6 -0.4,-2.4 -0.1,-0.4 -0.1,-0.7 -0.2,-1.1 -2.3,-9.6 -7.8,-18 -12,-23.5 0,0 0,0 0,-0.1 0,-0.1 -0.1,-0.1 -0.1,-0.2 -0.4,-0.6 -0.9,-1.2 -1.4,-1.8 -0.2,-0.2 -0.3,-0.4 -0.5,-0.6 0.6,-0.7 1.2,-1.4 1.9,-2.1 6.8,-6.9 19,-12.6 31.3,-12.4 4.8,0.6 9.5,1.6 13.9,3.1 5.1,1.7 10,4.1 14.4,6.9 0,0 0,0 0,0 18.9,12 31.2,33.1 31.2,57.1 -0.1,37.1 -30.1,67.3 -67.2,67.6 z"
         id="path28"
         style="fill:#1b998b" />
    </g>
  </g>
</svg>
