<?xml version="1.0" standalone="no"?>
<!DOCTYPE svg PUBLIC "-//W3C//DTD SVG 20010904//EN"
 "http://www.w3.org/TR/2001/REC-SVG-20010904/DTD/svg10.dtd">
<svg version="1.0" xmlns="http://www.w3.org/2000/svg"
 width="622.000000pt" height="622.000000pt" viewBox="0 0 622.000000 622.000000"
 preserveAspectRatio="xMidYMid meet">
<metadata>
Created by potrace 1.14, written by Peter Selinger 2001-2017
</metadata>
<g transform="translate(0.000000,622.000000) scale(0.100000,-0.100000)"
fill="#000000" stroke="none">
<path d="M3399 5706 c-2 -2 -35 -7 -74 -10 -142 -13 -148 -15 -140 -45 4 -14
8 -33 10 -41 5 -21 113 -418 125 -460 11 -41 29 -110 31 -125 1 -5 6 -21 11
-35 5 -14 11 -32 13 -40 3 -12 40 -156 60 -232 3 -10 7 -26 10 -35 2 -10 15
-58 29 -108 13 -49 38 -142 55 -205 17 -63 58 -216 91 -340 33 -124 63 -233
65 -243 2 -10 14 -52 26 -95 12 -42 22 -84 24 -92 1 -8 8 -40 17 -70 8 -30 25
-93 38 -140 12 -47 26 -97 31 -111 l10 -25 354 0 c194 1 356 4 360 8 4 3 -8
57 -25 120 -18 62 -34 121 -36 131 -5 23 -13 53 -19 75 -2 9 -9 33 -14 52 -5
19 -16 60 -24 90 -23 84 -65 239 -121 450 -28 108 -95 358 -137 515 -17 61
-32 117 -34 125 -2 8 -4 17 -5 20 -1 3 -3 10 -5 15 -1 6 -3 12 -4 15 -2 3 -4
12 -6 20 -10 50 -129 492 -141 523 -8 20 -14 40 -13 45 0 4 -12 55 -27 114
l-27 107 -41 6 c-23 3 -57 8 -76 11 -42 6 -386 15 -391 10z"/>
<path d="M2769 5632 c-24 -7 -55 -15 -69 -17 -42 -8 -62 -13 -140 -35 -41 -11
-84 -23 -94 -25 -23 -5 -240 -77 -244 -80 -2 -2 22 -97 53 -211 57 -213 114
-427 121 -454 2 -8 37 -141 79 -295 42 -154 78 -289 81 -300 3 -11 6 -24 8
-30 2 -5 6 -23 11 -40 4 -16 34 -129 67 -250 51 -189 105 -396 113 -430 1 -5
5 -17 8 -25 6 -15 26 -90 32 -120 2 -8 8 -27 13 -41 l10 -26 359 1 c352 1 358
1 355 21 -2 11 -22 88 -44 170 -22 83 -42 157 -43 165 -2 8 -4 15 -5 15 -1 0
-3 7 -5 16 -1 9 -10 41 -18 70 -9 30 -18 65 -21 79 -3 14 -14 57 -25 95 -11
39 -32 115 -46 170 -15 55 -38 141 -51 190 -14 50 -26 97 -28 105 -6 24 -53
199 -76 282 -12 43 -23 86 -25 98 -7 28 -9 35 -55 205 -45 165 -162 605 -180
673 -11 42 -11 42 -54 40 -24 -2 -63 -9 -87 -16z"/>
<path d="M4221 5573 c11 -37 22 -79 25 -93 3 -14 12 -48 20 -76 8 -28 17 -62
19 -75 3 -13 9 -35 14 -49 5 -14 21 -72 36 -130 15 -58 38 -144 52 -191 13
-47 25 -95 27 -105 2 -10 27 -104 56 -209 28 -104 53 -199 55 -209 3 -10 9
-33 15 -51 6 -18 12 -41 14 -51 2 -10 14 -55 25 -99 12 -44 24 -91 27 -104 3
-13 9 -32 15 -43 5 -10 8 -18 5 -18 -3 0 0 -15 5 -32 6 -18 12 -40 14 -48 9
-38 34 -126 39 -140 3 -8 8 -26 10 -40 3 -14 10 -43 16 -65 6 -22 12 -47 14
-55 3 -8 12 -42 21 -75 9 -33 26 -94 36 -135 11 -41 22 -83 24 -92 7 -24 14
-54 19 -77 3 -11 9 -28 15 -38 9 -18 28 -19 368 -18 312 0 358 2 355 15 -2 8
-6 24 -8 35 -2 11 -17 68 -33 126 -17 58 -32 117 -35 130 -3 13 -19 76 -36
139 -18 63 -34 123 -36 133 -2 9 -6 25 -9 35 -2 9 -23 85 -45 167 -23 83 -43
157 -45 165 -2 8 -11 42 -20 75 -26 97 -56 209 -60 225 -2 8 -33 126 -70 262
-36 136 -68 260 -71 275 -3 14 -7 30 -10 35 -5 7 -42 145 -50 181 -9 47 -20
59 -102 110 -140 86 -352 181 -495 221 -108 30 -163 44 -199 50 l-37 7 20 -68z"/>
<path d="M1776 5280 c-163 -82 -368 -201 -420 -243 -29 -24 -30 -25 -17 -67 7
-24 14 -50 17 -59 2 -9 8 -34 14 -56 6 -22 13 -51 16 -65 2 -14 9 -36 13 -50
5 -14 23 -79 40 -145 17 -66 36 -133 41 -150 5 -16 25 -93 45 -169 20 -77 38
-142 40 -146 2 -3 6 -17 8 -31 3 -13 10 -44 17 -69 7 -25 14 -52 15 -60 2 -8
17 -62 33 -120 27 -97 112 -412 116 -435 4 -18 27 -99 37 -131 l10 -31 354 1
c194 0 356 4 360 7 3 4 -6 49 -20 100 -14 52 -27 103 -29 114 -2 11 -16 63
-30 115 -25 89 -32 113 -41 150 -2 8 -4 15 -5 15 -1 0 -3 7 -5 15 -4 19 -20
82 -35 135 -6 22 -13 51 -16 65 -2 14 -7 32 -10 40 -4 8 -15 49 -26 90 -11 41
-24 91 -29 110 -5 19 -11 42 -13 50 -3 8 -16 60 -31 115 -33 123 -76 283 -115
433 -16 62 -31 116 -34 120 -3 5 -7 19 -9 33 -3 13 -19 76 -37 139 -17 63 -33
124 -36 135 -18 81 -32 120 -45 122 -8 2 -86 -33 -173 -77z"/>
<path d="M5411 4925 c5 -22 12 -48 14 -57 8 -29 16 -61 21 -87 3 -14 7 -28 10
-33 3 -4 7 -16 9 -25 4 -24 81 -315 99 -378 8 -27 40 -147 72 -265 85 -324
143 -541 155 -582 5 -21 10 -40 11 -43 0 -2 13 -48 28 -102 l27 -98 179 0
c152 1 178 3 175 15 -2 8 -4 20 -6 25 -1 6 -5 17 -8 25 -3 8 -18 58 -33 110
-32 113 -114 359 -151 450 -14 36 -29 74 -33 85 -71 179 -233 519 -266 556 -8
8 -14 19 -14 24 0 4 -35 60 -77 123 -43 64 -82 122 -88 131 -5 8 -14 20 -20
27 -5 6 -24 29 -42 51 -17 21 -41 50 -52 63 l-20 25 10 -40z"/>
<path d="M1050 4798 c-19 -16 -53 -46 -75 -65 -63 -54 -163 -153 -245 -240
-80 -85 -92 -99 -155 -178 -22 -27 -44 -53 -49 -56 -5 -4 -6 -11 -3 -16 3 -5
9 -25 12 -44 3 -19 12 -56 20 -84 25 -87 65 -233 69 -257 3 -13 5 -23 6 -23 1
0 3 -7 5 -15 2 -8 10 -40 19 -70 30 -112 69 -258 100 -375 l32 -120 362 -1
c328 -1 362 1 358 15 -3 9 -15 52 -26 96 -12 44 -23 87 -25 95 -2 8 -11 39
-19 68 -8 28 -12 52 -9 52 3 0 1 6 -5 13 -5 6 -12 26 -15 44 -3 17 -8 36 -11
41 -3 4 -7 19 -9 33 -6 28 -89 342 -117 439 -11 36 -21 76 -24 90 -3 14 -21
84 -41 155 -20 72 -38 139 -40 150 -2 11 -18 72 -35 135 -18 63 -33 120 -34
127 -4 23 -11 22 -46 -9z"/>
<path d="M296 3906 c-9 -14 -16 -30 -16 -36 0 -5 -3 -10 -7 -10 -5 0 -13 -10
-19 -23 -6 -12 -36 -73 -68 -135 -55 -108 -134 -294 -161 -377 -7 -22 -16 -47
-19 -56 -6 -14 19 -16 235 -17 133 -1 245 1 249 3 7 4 0 34 -45 200 -23 85
-46 169 -50 185 -3 14 -12 46 -59 224 -9 32 -17 61 -19 63 -3 2 -12 -8 -21
-21z"/>
<path d="M5 2971 c-4 -3 57 -177 79 -226 8 -16 26 -59 41 -94 27 -64 126 -260
163 -321 22 -35 27 -32 41 26 5 21 17 66 26 99 10 33 19 67 21 75 1 8 28 108
59 222 30 114 55 211 55 215 0 8 -478 12 -485 4z"/>
<path d="M790 2972 c-8 -3 -20 -37 -36 -102 -2 -8 -13 -49 -24 -90 -11 -41
-23 -86 -26 -100 -2 -14 -9 -36 -13 -50 -8 -21 -119 -434 -126 -465 -1 -5 -7
-30 -14 -55 -7 -25 -15 -52 -16 -60 -16 -70 -16 -78 -3 -91 7 -8 40 -48 73
-89 66 -83 353 -374 427 -433 49 -39 64 -45 65 -24 0 6 10 48 22 92 12 44 23
87 25 95 2 8 16 60 31 115 15 55 29 107 30 115 2 8 4 15 5 15 1 0 3 7 5 15 1
9 21 83 43 165 40 151 51 196 51 205 0 3 5 19 11 35 6 17 23 73 36 125 14 52
30 111 35 130 5 19 12 48 15 63 3 16 12 46 19 68 8 21 12 39 8 39 -3 0 0 7 7
15 7 8 10 15 7 15 -3 0 -1 15 4 33 13 40 49 175 54 202 4 20 -1 20 -350 20
-195 0 -359 -1 -365 -3z"/>
<path d="M1791 2940 c-20 -73 -172 -636 -175 -650 -2 -8 -9 -35 -16 -60 -7
-25 -14 -52 -15 -60 -2 -8 -13 -49 -25 -90 -11 -41 -22 -82 -24 -90 -2 -8 -11
-42 -20 -75 -9 -33 -18 -67 -20 -75 -2 -8 -39 -143 -81 -300 -97 -363 -93
-336 -56 -358 17 -9 31 -20 31 -24 0 -5 7 -8 15 -8 8 0 15 -4 15 -10 0 -5 4
-10 8 -10 5 0 51 -26 103 -57 52 -31 162 -90 244 -130 83 -41 158 -78 168 -84
9 -5 17 -6 18 -2 1 10 3 21 33 128 13 50 38 144 55 210 18 66 41 152 52 190
16 59 105 390 113 420 1 6 5 19 9 30 3 11 8 31 11 45 2 14 20 82 40 151 19 69
38 141 41 159 3 18 8 37 11 42 3 4 7 18 10 30 9 39 12 53 14 53 2 0 6 17 14
55 3 14 17 66 31 115 14 50 28 101 31 115 3 14 14 57 25 95 11 39 24 86 29
105 5 19 13 46 17 60 10 37 11 42 18 80 l7 35 -361 0 -360 0 -10 -35z"/>
<path d="M2815 2970 c-2 -3 -33 -118 -70 -255 -37 -138 -72 -268 -78 -290 -14
-53 -16 -62 -21 -82 -3 -10 -5 -18 -6 -18 -1 0 -3 -7 -5 -15 -7 -33 -47 -187
-56 -215 -9 -28 -96 -353 -104 -385 -1 -8 -10 -42 -19 -75 -9 -33 -18 -67 -20
-75 -2 -8 -20 -76 -41 -150 -20 -74 -47 -175 -60 -225 -12 -49 -44 -168 -70
-263 -26 -95 -45 -175 -43 -177 5 -4 284 -94 310 -99 13 -3 50 -12 83 -21 128
-35 285 -63 285 -51 0 2 27 105 60 228 34 123 63 234 66 248 3 14 14 56 25 95
11 38 22 79 24 90 3 10 20 76 39 145 19 69 48 177 65 240 32 121 101 378 146
545 15 55 29 107 30 115 2 8 4 15 5 15 1 0 3 7 5 16 3 18 97 368 146 548 16
58 26 107 23 110 -7 7 -715 8 -719 1z"/>
<path d="M3818 2930 c-7 -25 -13 -48 -14 -52 -1 -5 -2 -9 -4 -10 -1 -2 -3 -10
-5 -18 -1 -9 -12 -51 -25 -95 -25 -92 -80 -303 -85 -325 -2 -8 -4 -15 -5 -15
-1 0 -3 -7 -5 -15 -4 -20 -82 -313 -100 -375 -8 -27 -25 -93 -39 -145 -13 -52
-50 -189 -81 -305 -31 -115 -58 -217 -60 -225 -2 -8 -18 -67 -35 -130 -28
-101 -42 -155 -55 -210 -2 -8 -25 -91 -51 -185 -25 -93 -48 -177 -49 -185 -2
-8 -4 -15 -5 -15 -1 0 -3 -9 -5 -19 -2 -11 -6 -30 -10 -43 -3 -15 -1 -23 7
-24 7 0 22 -2 32 -4 107 -20 425 -26 546 -11 36 5 77 9 93 10 15 1 31 6 36 12
5 5 23 63 41 129 17 66 45 168 61 227 17 60 32 116 34 125 2 10 13 52 25 93
12 41 23 85 26 98 2 12 25 98 50 190 25 92 48 177 50 189 2 12 9 34 14 48 5
14 7 25 5 25 -3 0 1 17 9 38 8 20 26 82 40 137 14 55 42 159 61 230 20 72 37
139 40 150 2 11 18 70 35 130 16 61 32 119 35 130 2 11 18 70 35 130 16 61 32
119 34 130 3 11 14 54 26 95 11 41 23 89 26 105 l6 30 -360 0 -361 0 -13 -45z"/>
<path d="M4844 2969 c-4 -6 -55 -193 -114 -419 -57 -213 -82 -306 -101 -380
-12 -41 -23 -86 -25 -99 -3 -14 -7 -28 -10 -33 -3 -4 -16 -52 -30 -106 -28
-110 -24 -96 -59 -222 -15 -52 -28 -103 -31 -112 -2 -10 -6 -26 -9 -35 -23
-87 -58 -221 -60 -233 -2 -8 -4 -15 -5 -15 -1 0 -3 -7 -5 -15 -9 -34 -16 -62
-55 -205 -22 -82 -43 -159 -45 -170 -6 -26 -18 -79 -20 -85 -1 -3 -5 -12 -8
-20 -4 -8 -11 -33 -16 -55 -5 -22 -18 -73 -29 -112 -22 -83 -25 -81 67 -57 34
8 69 17 78 19 47 10 208 67 298 105 105 44 190 89 291 152 69 43 57 17 119
253 23 87 64 239 85 320 11 39 32 120 49 180 16 61 41 154 55 208 15 53 29
107 32 120 6 27 9 38 17 57 5 14 74 274 82 310 2 8 17 67 35 130 17 63 33 126
36 140 2 14 9 36 14 50 8 22 64 228 77 284 12 54 36 50 -350 51 -197 0 -361
-3 -363 -6z"/>
<path d="M5862 2970 c-6 -4 -31 -91 -58 -200 -2 -8 -56 -208 -119 -445 -64
-236 -119 -441 -121 -454 -3 -14 -7 -28 -10 -33 -3 -4 -7 -16 -9 -25 -2 -10
-15 -61 -28 -113 -14 -52 -40 -149 -57 -215 -17 -66 -38 -142 -46 -169 -8 -27
-12 -51 -11 -53 2 -2 19 16 37 40 19 23 40 49 47 57 8 8 32 40 53 70 22 30 43
60 47 65 66 85 246 411 312 565 13 30 31 73 41 95 41 90 155 404 190 520 10
33 30 98 45 145 23 75 30 99 38 144 1 8 -50 11 -171 11 -95 0 -176 -2 -180 -5z"/>
</g>
</svg>
