<?xml version="1.0" standalone="no"?>
<!DOCTYPE svg PUBLIC "-//W3C//DTD SVG 20010904//EN"
 "http://www.w3.org/TR/2001/REC-SVG-20010904/DTD/svg10.dtd">
<svg version="1.0" xmlns="http://www.w3.org/2000/svg"
 width="638.000000pt" height="638.000000pt" viewBox="0 0 638.000000 638.000000"
 preserveAspectRatio="xMidYMid meet">
<metadata>
Created by potrace 1.14, written by Peter Selinger 2001-2017
</metadata>
<g transform="translate(0.000000,638.000000) scale(0.100000,-0.100000)"
fill="#000000" stroke="none">
<path d="M3395 5777 c-71 -24 -115 -77 -116 -140 0 -17 9 -66 20 -107 45 -169
93 -346 98 -360 3 -8 7 -20 8 -26 2 -7 20 -72 40 -145 20 -74 39 -143 41 -154
2 -11 8 -31 13 -45 6 -14 21 -68 35 -120 13 -52 31 -116 39 -142 8 -27 13 -48
11 -48 -2 0 1 -12 7 -27 6 -16 19 -59 30 -98 27 -101 77 -279 100 -360 11 -38
22 -81 25 -95 2 -14 9 -36 14 -50 5 -14 16 -54 25 -90 9 -36 20 -78 25 -95 5
-16 21 -70 36 -120 14 -49 37 -105 51 -123 26 -34 90 -80 127 -89 11 -3 122
-7 246 -8 202 -1 229 0 263 17 67 33 92 103 66 188 -5 19 -12 44 -14 55 -5 22
-127 462 -149 540 -18 58 -235 846 -246 890 -9 34 -114 412 -129 463 -5 18
-10 33 -9 35 2 15 -28 92 -51 128 -35 56 -83 94 -149 118 -42 16 -81 19 -239
19 -103 0 -201 -5 -218 -11z"/>
<path d="M2730 5698 c-25 -5 -52 -12 -60 -15 -8 -3 -22 -7 -30 -8 -32 -4 -217
-59 -245 -73 -39 -19 -86 -63 -79 -74 3 -4 1 -8 -5 -8 -9 0 -22 -42 -26 -85
-2 -18 23 -113 136 -525 16 -58 31 -113 34 -123 9 -37 57 -213 63 -227 3 -8 6
-22 8 -30 1 -8 7 -31 13 -50 16 -52 53 -184 56 -195 6 -30 19 -78 38 -140 11
-38 21 -75 23 -80 4 -25 138 -504 151 -545 27 -83 67 -131 138 -165 35 -17 66
-19 271 -20 252 -2 277 3 317 56 35 49 35 85 -1 214 -76 277 -79 286 -132 480
-50 183 -57 207 -115 415 -25 91 -48 172 -50 180 -2 8 -25 92 -50 185 -26 94
-48 175 -49 180 -4 15 -27 98 -34 115 -3 8 -6 22 -8 31 -10 46 -107 386 -116
403 -44 86 -140 126 -248 104z"/>
<path d="M4364 5659 c-18 -19 -26 -37 -25 -61 0 -30 7 -73 11 -73 1 0 3 -7 5
-15 1 -8 19 -76 40 -150 21 -74 39 -142 40 -150 2 -8 4 -15 5 -15 1 0 3 -7 5
-15 2 -8 20 -73 40 -145 20 -71 43 -155 51 -185 8 -30 21 -75 28 -100 7 -25
14 -48 15 -52 1 -4 3 -13 5 -20 2 -7 18 -67 36 -133 18 -66 36 -131 41 -145 5
-14 10 -34 12 -45 2 -11 7 -27 10 -35 3 -8 19 -69 37 -135 17 -66 36 -133 41
-150 12 -37 89 -314 94 -337 2 -9 13 -51 25 -93 12 -42 23 -85 25 -95 9 -45
74 -124 120 -145 65 -29 98 -32 310 -31 186 2 225 4 252 19 37 20 72 72 74
113 1 16 -35 162 -80 324 -46 162 -83 300 -85 305 -1 6 -5 16 -9 23 -5 6 -6
12 -3 12 3 0 1 12 -5 28 -6 15 -13 38 -15 52 -3 14 -11 46 -20 71 -8 25 -17
57 -19 70 -3 13 -11 47 -20 74 -42 141 -58 202 -61 220 -1 11 -3 20 -4 20 -1
0 -3 7 -5 15 -1 8 -21 80 -44 160 -23 80 -46 161 -51 180 -74 265 -95 312
-183 401 -78 80 -282 175 -532 248 -93 27 -128 25 -161 -10z"/>
<path d="M1816 5374 c-46 -16 -171 -78 -174 -86 -2 -5 -10 -8 -19 -8 -8 0 -26
-9 -40 -20 -14 -11 -32 -20 -39 -20 -8 0 -14 -3 -14 -8 0 -4 -14 -13 -31 -21
-46 -20 -96 -78 -118 -135 -21 -54 -22 -157 -2 -194 5 -10 12 -29 14 -43 2
-13 6 -31 10 -39 3 -8 19 -69 37 -135 17 -66 36 -133 41 -150 13 -43 69 -246
75 -270 2 -11 10 -42 19 -70 8 -27 24 -84 35 -125 11 -41 25 -91 30 -110 5
-19 19 -69 30 -110 11 -41 24 -88 29 -105 15 -49 52 -185 56 -207 6 -30 50
-100 77 -124 64 -55 77 -57 323 -59 188 -2 237 1 270 14 46 18 71 44 81 86 13
51 13 51 -42 240 -8 28 -16 57 -18 65 -2 8 -10 35 -17 60 -7 25 -14 52 -15 60
-2 8 -10 38 -18 65 -21 72 -87 307 -91 326 -2 9 -8 34 -15 55 -6 22 -20 73
-31 114 -22 80 -23 81 -40 150 -7 25 -14 52 -17 60 -6 16 -40 135 -46 160 -4
17 -30 109 -51 185 -8 28 -29 106 -48 175 -43 153 -45 158 -75 192 -41 45 -98
56 -166 32z"/>
<path d="M5576 4953 c-12 -12 -6 -50 25 -159 17 -60 32 -116 33 -124 1 -8 5
-22 8 -30 3 -8 21 -69 38 -135 18 -66 39 -140 46 -165 7 -25 43 -153 79 -285
36 -132 71 -262 79 -290 8 -27 22 -77 32 -110 10 -33 18 -65 20 -71 32 -161
122 -246 261 -247 85 -1 139 57 130 141 -4 44 -76 264 -127 392 -12 30 -23 60
-24 65 -1 6 -10 28 -20 49 -9 22 -19 50 -22 63 -4 13 -10 26 -15 29 -5 3 -9
14 -9 25 0 10 -4 19 -10 19 -5 0 -10 7 -10 16 0 23 -145 317 -210 429 -54 90
-168 266 -180 275 -3 3 -17 21 -30 40 -38 55 -79 87 -94 73z"/>
<path d="M964 4816 c-27 -12 -328 -302 -364 -352 -89 -121 -95 -249 -22 -464
3 -8 6 -22 8 -30 1 -8 10 -42 20 -75 9 -33 22 -80 29 -105 55 -198 83 -295 91
-315 11 -30 53 -77 88 -101 56 -37 102 -43 332 -41 217 2 221 2 257 27 67 46
74 89 36 227 -16 60 -31 115 -33 124 -3 9 -39 139 -81 290 -42 151 -78 281
-80 289 -2 8 -11 42 -20 75 -9 33 -18 67 -20 75 -3 8 -14 48 -25 88 -11 39
-28 102 -39 140 -27 97 -36 117 -67 141 -30 24 -65 26 -110 7z"/>
<path d="M213 3901 c-23 -20 -117 -199 -177 -338 -41 -97 -43 -151 -5 -189 34
-34 70 -42 179 -39 131 3 124 1 163 39 61 59 60 80 -18 351 -8 28 -19 68 -24
90 -25 95 -69 127 -118 86z"/>
<path d="M120 3052 c-77 -10 -125 -64 -117 -131 4 -37 8 -47 84 -210 24 -51
43 -97 43 -102 0 -5 4 -9 9 -9 5 0 11 -10 15 -23 3 -13 19 -42 36 -65 23 -33
37 -42 59 -42 41 0 59 36 105 205 20 77 41 151 46 165 28 78 4 158 -57 193
-30 17 -152 28 -223 19z"/>
<path d="M885 3043 c-67 -16 -125 -61 -155 -120 -14 -26 -26 -55 -28 -62 -2
-8 -10 -40 -18 -70 -9 -31 -20 -72 -25 -91 -5 -19 -12 -43 -14 -52 -3 -10 -7
-26 -10 -35 -13 -49 -46 -166 -65 -233 -12 -41 -23 -85 -26 -97 -2 -12 -8 -33
-13 -46 -15 -40 -5 -168 18 -228 25 -66 63 -113 215 -264 164 -163 200 -190
253 -190 36 0 48 5 71 30 15 17 28 35 29 40 0 6 20 78 43 160 23 83 57 204 76
270 47 171 184 666 190 690 3 11 6 25 8 30 1 6 10 39 20 75 22 81 10 128 -46
173 l-36 29 -220 2 c-145 1 -236 -2 -267 -11z"/>
<path d="M1934 3044 c-24 -6 -59 -21 -79 -35 -63 -43 -87 -92 -135 -274 -27
-102 -26 -98 -100 -365 -34 -124 -64 -232 -66 -240 -2 -8 -13 -49 -25 -90 -11
-41 -25 -91 -30 -110 -6 -19 -15 -51 -20 -70 -5 -19 -11 -42 -14 -50 -2 -8
-22 -80 -45 -160 -22 -80 -43 -154 -46 -165 -26 -94 1 -208 63 -268 54 -53
346 -209 414 -222 47 -9 118 21 146 61 12 16 49 133 83 259 35 127 72 262 82
300 34 119 59 209 63 228 3 9 7 25 10 35 2 9 11 42 20 72 14 49 50 180 61 220
2 8 29 105 59 215 31 110 67 241 80 290 14 50 33 119 43 155 10 36 17 72 17
80 -1 8 -3 25 -3 37 -3 33 -57 89 -94 98 -52 12 -437 11 -484 -1z"/>
<path d="M2970 3040 c-50 -17 -90 -45 -121 -84 -19 -24 -55 -115 -63 -161 -2
-11 -27 -103 -56 -205 -28 -102 -54 -193 -56 -202 -6 -25 -10 -40 -44 -163
-43 -150 -100 -357 -104 -375 -2 -8 -21 -73 -41 -145 -20 -71 -39 -141 -41
-154 -3 -14 -7 -28 -10 -33 -3 -4 -7 -17 -10 -28 -9 -44 -14 -63 -36 -140 -25
-85 -69 -243 -73 -260 -2 -8 -10 -38 -18 -66 -26 -98 3 -190 76 -235 26 -16
107 -45 152 -55 35 -7 184 -46 205 -52 14 -5 50 -8 79 -6 99 4 176 80 196 194
3 18 8 37 11 42 5 7 48 160 58 203 1 6 6 26 10 45 5 19 11 40 14 45 4 6 7 15
8 21 1 9 31 119 131 479 13 50 26 97 28 105 3 8 18 65 35 125 25 89 74 265 95
345 3 8 13 47 24 85 11 39 45 160 76 270 30 110 58 209 61 220 4 11 6 40 6 64
0 51 -23 86 -72 115 -30 18 -55 20 -254 21 -175 0 -229 -3 -266 -15z"/>
<path d="M4029 3044 c-42 -13 -84 -37 -110 -63 -44 -46 -54 -74 -175 -516 -13
-49 -26 -97 -28 -105 -2 -8 -10 -35 -17 -60 -7 -25 -13 -49 -14 -55 -7 -31
-38 -143 -45 -160 -7 -16 -126 -450 -135 -490 -1 -5 -5 -17 -8 -25 -3 -8 -13
-44 -22 -80 -16 -61 -95 -347 -151 -545 -14 -49 -27 -98 -30 -107 -2 -10 -7
-28 -10 -40 -15 -61 2 -123 44 -161 41 -38 101 -46 309 -43 218 2 241 8 312
71 61 55 80 100 141 330 10 39 26 97 36 130 10 33 19 65 20 70 1 6 14 53 28
105 15 52 29 102 31 110 6 29 55 205 64 235 9 28 91 326 96 350 1 5 5 17 8 25
5 12 46 161 63 230 2 8 17 62 33 120 105 372 143 520 143 553 -1 45 -31 91
-75 114 -27 14 -66 17 -250 18 -141 0 -232 -4 -258 -11z"/>
<path d="M5095 3048 c-71 -14 -137 -63 -169 -126 -11 -22 -55 -167 -71 -233
-2 -9 -9 -34 -15 -55 -12 -42 -78 -279 -84 -304 -2 -8 -16 -58 -30 -110 -15
-52 -29 -103 -31 -113 -5 -22 -92 -335 -112 -402 -8 -27 -16 -59 -19 -70 -2
-11 -13 -51 -25 -90 -11 -38 -25 -88 -30 -110 -6 -22 -22 -80 -36 -130 -13
-49 -27 -97 -29 -105 -2 -8 -22 -80 -44 -160 -23 -80 -43 -153 -45 -163 -2
-10 -7 -28 -11 -40 -28 -86 25 -157 108 -143 37 6 72 13 76 16 1 2 7 4 12 5 6
1 11 3 13 4 1 2 11 4 22 6 41 8 235 85 328 131 113 55 179 115 237 213 35 61
65 154 151 476 7 27 53 196 64 235 2 8 47 170 100 360 53 190 105 379 116 420
11 41 29 107 40 145 19 65 24 85 34 125 2 8 4 15 5 15 2 0 9 35 14 70 3 22 -4
42 -23 70 -44 65 -59 69 -296 70 -116 0 -228 -3 -250 -7z"/>
<path d="M6125 3045 c-82 -21 -150 -92 -170 -175 -1 -3 -7 -25 -14 -50 -7 -25
-14 -52 -16 -60 -2 -8 -19 -71 -38 -140 -82 -290 -80 -283 -92 -330 -2 -8 -4
-15 -5 -15 -1 0 -3 -7 -5 -15 -4 -17 -22 -84 -56 -205 -72 -262 -105 -382
-118 -422 -5 -18 -8 -33 -5 -33 3 0 0 -8 -5 -18 -11 -21 -21 -61 -28 -113 -4
-27 -1 -38 11 -42 21 -8 51 22 119 118 31 44 60 85 64 90 25 32 50 73 124 202
83 145 158 296 214 433 15 36 33 79 40 95 45 101 217 609 227 670 3 18 -3 19
-100 20 -56 0 -122 -4 -147 -10z"/>
</g>
</svg>
