<?xml version="1.0" standalone="no"?>
<!DOCTYPE svg PUBLIC "-//W3C//DTD SVG 20010904//EN"
 "http://www.w3.org/TR/2001/REC-SVG-20010904/DTD/svg10.dtd">
<svg version="1.0" xmlns="http://www.w3.org/2000/svg"
 width="638.000000pt" height="638.000000pt" viewBox="0 0 638.000000 638.000000"
 preserveAspectRatio="xMidYMid meet">
<metadata>
Created by potrace 1.14, written by Peter Selinger 2001-2017
</metadata>
<g transform="translate(0.000000,638.000000) scale(0.100000,-0.100000)"
fill="#000000" stroke="none">
<path d="M3445 5783 c-67 -14 -103 -39 -129 -90 -20 -40 -20 -74 -1 -138 9
-27 17 -59 20 -70 2 -11 13 -51 24 -90 11 -38 47 -169 81 -290 33 -121 67
-242 76 -270 8 -27 30 -108 50 -180 20 -71 42 -152 50 -180 8 -27 17 -59 19
-70 3 -11 12 -42 20 -70 12 -39 97 -345 109 -390 13 -51 30 -112 47 -170 12
-38 23 -79 25 -90 4 -21 25 -92 51 -179 19 -61 69 -117 131 -147 44 -21 60
-23 272 -24 124 -1 238 2 254 7 41 11 85 55 96 99 9 31 1 67 -56 275 -36 131
-70 253 -74 269 -28 103 -42 154 -51 180 -14 45 -90 317 -94 340 -2 11 -27
101 -55 200 -28 99 -53 187 -55 195 -2 8 -4 15 -5 15 -1 0 -3 9 -5 20 -2 11
-16 61 -30 110 -15 50 -28 97 -30 105 -2 8 -22 80 -44 160 -43 150 -48 168
-55 198 -33 147 -102 229 -226 270 -19 6 -388 11 -415 5z"/>
<path d="M2789 5706 c-2 -3 -20 -8 -39 -11 -75 -13 -307 -78 -345 -97 -48 -23
-91 -85 -101 -144 -4 -30 1 -69 21 -140 30 -111 32 -116 34 -126 1 -4 7 -22
12 -40 9 -30 61 -214 94 -333 8 -27 26 -93 40 -145 15 -52 29 -102 31 -110 2
-8 26 -96 54 -195 28 -99 58 -205 66 -235 8 -30 16 -62 19 -70 8 -27 86 -305
89 -320 24 -93 71 -251 83 -275 22 -41 76 -92 121 -112 31 -13 77 -17 267 -18
204 -2 235 -1 273 16 34 15 47 27 63 65 24 52 22 81 -11 184 -11 35 -23 77
-26 94 -3 16 -7 33 -9 37 -4 6 -79 271 -90 319 -2 8 -4 15 -5 15 -1 0 -3 7 -5
16 -4 24 -53 198 -65 236 -6 18 -13 40 -15 50 -2 10 -19 74 -39 143 -19 69
-42 150 -50 180 -8 30 -27 98 -41 150 -15 52 -28 102 -30 110 -2 8 -8 29 -15
45 -6 17 -11 32 -11 35 2 19 -147 538 -163 569 -21 40 -53 70 -94 88 -37 15
-105 27 -113 19z"/>
<path d="M4401 5662 c-22 -22 -31 -40 -31 -64 0 -26 35 -175 55 -236 3 -7 5
-13 5 -15 0 -1 12 -42 26 -92 14 -49 31 -112 39 -140 7 -27 37 -133 66 -235
28 -102 52 -189 53 -195 3 -12 30 -110 52 -182 9 -29 17 -60 19 -70 2 -10 4
-18 5 -18 1 0 3 -7 5 -15 1 -8 24 -89 49 -180 26 -91 49 -173 52 -182 2 -10 6
-26 8 -35 3 -10 21 -76 42 -148 20 -71 38 -137 39 -145 2 -8 4 -16 5 -17 3 -3
3 -6 14 -48 49 -187 80 -239 166 -282 l55 -28 235 0 c229 0 236 1 273 23 63
40 81 99 57 182 -7 25 -14 50 -16 55 -2 10 -15 59 -55 200 -11 39 -21 77 -24
85 -2 8 -11 42 -20 75 -9 33 -20 74 -25 90 -4 17 -25 89 -45 160 -20 72 -43
154 -51 183 -8 28 -21 78 -30 110 -8 31 -17 64 -20 72 -4 18 -50 181 -64 230
-6 19 -37 130 -70 246 -32 116 -69 229 -81 250 -27 46 -81 116 -118 150 -73
68 -458 224 -593 241 -43 5 -50 3 -77 -25z"/>
<path d="M1796 5361 c-28 -13 -53 -25 -56 -26 -14 -3 -139 -71 -212 -114 -72
-43 -132 -102 -125 -122 1 -3 -4 -14 -12 -23 -22 -27 -22 -126 0 -198 10 -35
21 -72 24 -83 5 -22 14 -54 43 -160 11 -38 30 -104 41 -145 12 -41 30 -109 42
-150 11 -41 25 -91 30 -110 14 -53 14 -53 64 -230 25 -91 52 -187 60 -215 60
-218 88 -313 101 -332 23 -37 63 -72 107 -95 40 -21 55 -22 278 -23 196 -1
243 1 270 14 44 21 79 74 79 120 0 19 -25 126 -56 236 -30 110 -73 265 -95
345 -22 80 -49 174 -59 210 -11 36 -24 85 -31 110 -7 25 -14 50 -15 55 -2 6
-24 84 -49 175 -26 91 -58 208 -71 260 -14 52 -28 98 -30 102 -3 4 -7 16 -9
25 -4 19 -19 76 -55 203 -11 41 -22 83 -25 93 -7 32 -49 75 -88 91 -49 21 -89
17 -151 -13z"/>
<path d="M5613 4945 c-6 -18 0 -58 22 -130 19 -63 75 -265 80 -285 1 -8 9 -35
16 -60 7 -25 13 -48 15 -52 1 -5 2 -9 4 -10 1 -2 3 -10 5 -19 1 -9 11 -43 20
-75 9 -33 19 -66 21 -74 5 -21 50 -185 69 -250 9 -30 18 -62 20 -70 33 -131
121 -432 132 -454 75 -146 313 -177 352 -44 12 38 9 68 -14 128 -7 19 -14 40
-15 45 -3 12 -1 6 -35 110 -15 44 -37 107 -50 140 -13 33 -40 103 -60 155 -20
52 -41 100 -45 105 -5 6 -8 12 -8 15 -1 18 -134 298 -179 375 -80 137 -164
269 -175 273 -4 2 -8 8 -8 14 0 10 -82 121 -109 149 -25 24 -51 31 -58 14z"/>
<path d="M965 4811 c-40 -25 -71 -53 -190 -170 -180 -176 -205 -210 -230 -306
-26 -103 -21 -143 60 -420 12 -42 26 -94 41 -150 1 -5 14 -50 29 -100 14 -49
28 -101 31 -115 10 -50 56 -130 92 -160 62 -51 96 -57 337 -58 245 -1 274 5
313 62 31 45 33 76 11 158 -27 100 -28 106 -33 126 -9 36 -136 488 -145 517
-9 29 -111 397 -116 419 -1 6 -5 18 -8 26 -3 8 -13 42 -22 74 -29 103 -98 143
-170 97z"/>
<path d="M208 3893 c-41 -44 -193 -357 -205 -423 -2 -14 1 -42 8 -62 18 -55
60 -72 182 -74 145 -2 187 16 221 96 13 32 12 43 -15 145 -16 61 -32 117 -34
125 -2 8 -13 49 -24 89 -33 125 -79 161 -133 104z"/>
<path d="M120 3052 c-45 -6 -90 -32 -106 -64 -27 -53 -10 -110 102 -338 68
-138 100 -180 138 -180 44 0 56 28 141 340 2 8 8 29 13 46 22 71 -4 141 -66
177 -29 17 -152 28 -222 19z"/>
<path d="M912 3048 c-58 -10 -105 -34 -140 -72 -38 -42 -48 -62 -66 -128 -28
-98 -125 -443 -135 -475 -5 -18 -8 -33 -5 -33 3 0 0 -8 -5 -19 -6 -10 -13 -31
-15 -47 -3 -16 -10 -42 -14 -59 -25 -86 14 -232 83 -310 92 -104 304 -308 349
-336 77 -47 141 -8 174 106 22 72 174 620 177 637 2 9 20 74 40 145 21 70 39
136 40 146 2 9 6 21 9 25 3 5 7 19 10 33 3 13 19 73 35 134 32 116 33 153 2
195 -42 58 -65 63 -290 64 -114 1 -226 -2 -249 -6z"/>
<path d="M1960 3047 c-95 -19 -177 -101 -195 -198 -2 -9 -13 -49 -25 -89 -12
-40 -24 -81 -26 -91 -5 -26 -9 -37 -44 -164 -39 -135 -61 -215 -66 -235 -2 -8
-15 -55 -29 -105 -27 -92 -54 -188 -61 -215 -2 -8 -19 -71 -39 -140 -19 -69
-37 -134 -40 -144 -2 -11 -19 -71 -36 -133 -43 -154 -32 -233 43 -314 21 -22
216 -139 232 -139 4 0 23 -10 44 -23 126 -78 231 -81 289 -8 17 21 76 210 108
341 2 8 4 17 6 20 1 3 3 10 4 15 1 6 10 36 19 69 10 32 20 66 21 75 2 9 4 16
6 16 1 0 3 9 5 20 2 11 26 101 54 200 28 99 52 185 54 190 1 6 10 37 20 70 10
33 20 67 22 75 3 15 34 126 78 288 13 48 47 167 74 265 66 232 68 256 25 304
-50 54 -61 56 -289 57 -115 1 -230 -2 -254 -7z"/>
<path d="M3006 3044 c-89 -23 -144 -78 -176 -173 -12 -36 -24 -75 -26 -85 -2
-11 -15 -58 -28 -105 -41 -144 -58 -206 -56 -206 1 0 -3 -12 -9 -28 -6 -15
-13 -38 -15 -50 -7 -31 -96 -349 -103 -367 -3 -8 -7 -19 -8 -25 -2 -5 -8 -30
-15 -55 -7 -25 -14 -52 -16 -60 -4 -19 -31 -115 -79 -285 -20 -71 -58 -209
-85 -305 -26 -96 -51 -182 -54 -190 -3 -8 -8 -26 -11 -40 -3 -14 -10 -47 -16
-75 -15 -67 1 -125 49 -177 33 -34 51 -44 152 -73 63 -19 126 -37 140 -39 14
-2 53 -11 87 -19 103 -25 171 -9 229 54 37 40 44 62 129 369 74 268 82 298
101 360 7 25 22 79 33 120 11 41 27 100 36 130 9 30 17 62 19 70 3 8 27 98 56
200 28 102 58 208 65 235 8 28 37 131 65 230 28 99 53 189 55 200 3 11 18 67
35 125 16 58 30 117 30 132 0 54 -30 102 -80 128 -34 18 -437 21 -504 4z"/>
<path d="M4085 3052 c-39 -6 -100 -37 -131 -67 -48 -47 -65 -86 -106 -250 -5
-22 -12 -47 -15 -55 -3 -8 -7 -20 -8 -26 -5 -20 -85 -308 -95 -339 -10 -31
-79 -279 -85 -305 -1 -8 -21 -78 -43 -155 -22 -77 -43 -153 -47 -170 -5 -16
-9 -32 -10 -35 -7 -23 -28 -97 -30 -105 -8 -37 -18 -74 -25 -95 -5 -14 -21
-70 -35 -125 -15 -55 -29 -107 -32 -115 -4 -8 -7 -19 -8 -25 -1 -5 -3 -12 -4
-15 -2 -3 -4 -12 -6 -20 -2 -8 -20 -73 -40 -145 -19 -71 -42 -155 -50 -185
-19 -69 -19 -94 1 -133 21 -39 32 -50 74 -73 31 -16 61 -19 240 -21 192 -2
209 0 261 21 118 48 160 113 215 334 2 9 20 73 39 142 20 69 42 148 49 175 8
28 33 118 56 200 23 83 43 157 45 165 2 8 13 47 25 85 11 39 22 79 24 90 2 11
23 85 46 165 23 80 44 156 47 169 2 14 7 29 11 35 3 6 7 16 8 21 1 6 7 30 14
55 7 25 14 52 15 60 2 8 4 15 5 15 1 0 3 7 5 15 1 8 15 58 29 110 15 52 29
102 31 110 5 26 47 174 53 190 3 8 6 20 7 25 2 6 8 30 15 55 29 100 15 157
-47 200 -34 24 -39 24 -257 25 -121 0 -230 -1 -241 -3z"/>
<path d="M5140 3049 c-101 -17 -167 -80 -200 -188 -12 -38 -23 -76 -24 -83 -2
-7 -10 -38 -20 -69 -9 -31 -19 -65 -21 -75 -4 -19 -28 -105 -60 -214 -9 -30
-17 -62 -19 -70 -4 -14 -32 -116 -132 -475 -25 -88 -46 -167 -48 -175 -3 -8
-25 -89 -51 -180 -25 -91 -59 -212 -75 -270 -16 -58 -49 -178 -74 -267 -55
-195 -57 -223 -15 -265 28 -28 34 -30 80 -25 46 6 237 66 324 102 102 43 243
117 271 144 72 66 140 183 164 283 4 18 19 74 33 123 33 117 120 428 162 580
18 66 49 179 70 250 20 72 38 135 39 140 1 6 8 30 15 55 7 25 14 52 16 60 2 8
17 62 34 120 17 58 32 114 34 125 2 11 7 27 10 35 3 8 11 35 18 60 7 25 14 50
15 55 26 95 23 135 -15 179 -39 45 -65 50 -286 51 -115 0 -226 -2 -245 -6z"/>
<path d="M6157 3040 c-56 -21 -93 -50 -123 -94 -20 -29 -106 -302 -120 -382
-3 -15 -9 -35 -15 -46 -5 -10 -7 -18 -5 -18 3 0 1 -12 -4 -26 -10 -25 -101
-349 -141 -504 -11 -41 -29 -104 -39 -140 -24 -78 -79 -277 -86 -305 -18 -82
-11 -106 25 -83 22 13 128 145 149 185 7 12 18 27 24 35 35 37 202 335 265
473 72 159 82 183 103 235 11 30 27 69 35 85 7 17 17 44 21 60 4 17 10 35 14
40 16 21 113 322 117 363 11 106 -100 167 -220 122z"/>
</g>
</svg>
